<svg width="136" height="28" viewBox="0 0 136 28" fill="none" xmlns="http://www.w3.org/2000/svg"><path d="M2.33137 2.93665C2.50593 1.28755 3.91139 0.0450383 5.56944 0.0739798L33.5403 0.562213C35.4184 0.594994 36.8644 2.23069 36.6667 4.09858L34.4687 24.8634C34.2941 26.5125 32.8887 27.755 31.2306 27.726L3.25972 27.2378C1.38168 27.205 -0.0643745 25.5693 0.133348 23.7014L2.33137 2.93665Z" fill="#0F53D4"/><path d="M15.616 22.756C10.496 22.756 7.57756 20.0424 7.57756 15.3832V5.34797H10.3168V15.204C10.3168 18.66 11.8528 20.0936 15.616 20.0936C19.3792 20.0936 20.9152 18.66 20.9152 15.204V5.34797H23.68V15.3832C23.68 20.0424 20.7616 22.756 15.616 22.756ZM28.8948 22.5H26.13V5.34797H28.8948V22.5Z" fill="white"/><path d="M52.192 24.82C45.792 24.82 42.528 22.004 42.528 17.492V17.3H45.984V17.812C45.984 20.372 47.488 21.652 52.192 21.652C56.288 21.652 57.728 20.756 57.728 18.74C57.728 16.884 56.64 16.18 53.92 15.668L48.672 14.804C45.056 14.164 42.496 12.5 42.496 8.98C42.496 5.876 45.056 2.74 51.712 2.74C57.984 2.74 60.832 5.876 60.832 10.068V10.26H57.408V9.844C57.408 7.22 55.84 5.908 51.392 5.908C47.488 5.908 45.952 6.868 45.952 8.788C45.952 10.644 47.04 11.252 49.568 11.796L54.784 12.692C59.072 13.46 61.184 15.412 61.184 18.548C61.184 21.812 58.528 24.82 52.192 24.82ZM74.0695 24.5H70.4215C66.9975 24.5 64.8855 22.996 64.8855 19.124V11.476H62.1975V8.596H64.8855V5.108H68.3095V8.596H74.0695V11.476H68.3095V18.932C68.3095 20.884 69.2055 21.396 71.1895 21.396H74.0695V24.5ZM84.3592 24.82C79.0792 24.82 75.5272 21.46 75.5272 16.564C75.5272 11.604 79.0792 8.276 84.3592 8.276C89.6712 8.276 93.2232 11.604 93.2232 16.564C93.2232 21.46 89.6712 24.82 84.3592 24.82ZM84.3592 21.748C88.2312 21.748 89.8312 19.924 89.8312 16.564C89.8312 13.172 88.2312 11.316 84.3592 11.316C80.5192 11.316 78.9192 13.172 78.9192 16.564C78.9192 19.924 80.5192 21.748 84.3592 21.748ZM99.1872 24.5H95.7312V8.596H98.8992V12.884H99.1232C99.6032 10.324 101.331 8.276 104.595 8.276C108.211 8.276 109.779 10.868 109.779 13.876V15.956H106.355V14.548C106.355 12.276 105.395 11.22 103.027 11.22C100.307 11.22 99.1872 12.724 99.1872 15.572V24.5ZM115.406 6.74H111.95V3.06H115.406V6.74ZM115.406 24.5H111.95V8.596H115.406V24.5ZM123.278 24.82C119.982 24.82 117.902 23.284 117.902 20.66C117.902 18.196 119.886 16.916 123.022 16.564L130.254 15.796V14.868C130.254 12.244 129.102 11.316 126.062 11.316C123.118 11.316 121.678 12.276 121.678 14.612V14.74H118.254V14.612C118.254 10.996 121.262 8.276 126.318 8.276C131.374 8.276 133.646 11.028 133.646 14.836V24.5H130.478V20.532H130.254C129.422 23.22 126.894 24.82 123.278 24.82ZM121.358 20.436C121.358 21.716 122.222 22.324 124.206 22.324C127.822 22.324 130.254 20.98 130.254 17.844L124.014 18.548C122.222 18.772 121.358 19.188 121.358 20.436Z" fill="black"/></svg>
