<svg width="35" height="27" viewBox="0 0 35 27" fill="none" xmlns="http://www.w3.org/2000/svg">
    <path d="M2.42437 3.95097C2.55529 2.46723 3.798 1.32935 5.2875 1.32935H30.4149C32.102 1.32935 33.4263 2.77564 33.278 4.45623L31.6295 23.1389C31.4986 24.6226 30.2559 25.7605 28.7664 25.7605H3.63903C1.95191 25.7605 0.627614 24.3142 0.775901 22.6336L2.42437 3.95097Z" fill="#002DCB"/>
    <path d="M14.5263 21.2299C9.92752 21.2299 7.3062 18.7926 7.3062 14.6077V5.59401H9.76656V14.4467C9.76656 17.5509 11.1462 18.8386 14.5263 18.8386C17.9064 18.8386 19.2861 17.5509 19.2861 14.4467V5.59401H21.7694V14.6077C21.7694 18.7926 19.1481 21.2299 14.5263 21.2299ZM26.4534 21H23.97V5.59401H26.4534V21Z" fill="white"/>
</svg>