<?xml version="1.0" standalone="no"?>
<!DOCTYPE svg PUBLIC "-//W3C//DTD SVG 20010904//EN"
 "http://www.w3.org/TR/2001/REC-SVG-20010904/DTD/svg10.dtd">
<svg version="1.0" xmlns="http://www.w3.org/2000/svg"
 width="1120.000000pt" height="1120.000000pt" viewBox="0 0 1120.000000 1120.000000"
 preserveAspectRatio="xMidYMid meet">
<metadata>
Created by potrace 1.14, written by Peter Selinger 2001-2017
</metadata>
<g transform="translate(0.000000,1120.000000) scale(0.100000,-0.100000)"
fill="#000000" stroke="none">
<path d="M1480 9469 c-107 -24 -264 -100 -357 -173 -130 -102 -236 -247 -292
-402 -48 -132 -41 -73 -126 -1044 -20 -223 -47 -529 -60 -680 -13 -151 -36
-405 -50 -565 -14 -159 -37 -414 -50 -565 -13 -151 -38 -432 -55 -625 -17
-192 -42 -474 -55 -625 -14 -151 -40 -457 -60 -680 -41 -473 -65 -738 -100
-1125 -37 -409 -34 -519 17 -675 83 -256 289 -472 540 -570 169 -66 -194 -61
4388 -58 l4155 3 73 23 c276 85 490 272 598 521 55 126 71 224 114 721 22 256
51 589 65 740 13 151 38 433 55 625 17 193 42 474 55 625 14 151 43 482 65
735 22 253 52 584 65 735 13 151 40 457 60 680 50 570 83 940 105 1195 11 121
20 257 20 301 0 239 -105 482 -282 650 -119 112 -229 176 -390 226 l-73 23
-4170 2 c-4073 1 -4172 1 -4255 -18z m1651 -2914 c5 -1550 5 -1571 26 -1680
105 -541 391 -827 933 -934 182 -35 298 -45 560 -45 330 0 546 27 749 94 371
121 592 349 700 720 68 235 65 150 68 1868 l4 1552 400 0 400 0 -4 -1557 c-4
-1641 -3 -1603 -53 -1862 -131 -689 -568 -1194 -1234 -1426 -308 -107 -627
-155 -1030 -155 -233 0 -390 11 -570 41 -793 131 -1331 530 -1588 1180 -66
165 -123 416 -142 624 -6 68 -10 689 -10 1633 l0 1522 393 -2 392 -3 6 -1570z
m5334 -890 l0 -2460 -397 -3 -398 -2 0 2465 0 2465 398 -2 397 -3 0 -2460z"/>
</g>
</svg>
